<svg width="32" height="32" viewBox="0 0 32 32" fill="none" xmlns="http://www.w3.org/2000/svg">
<path d="M10.0404 8.70711C10.431 8.31658 10.431 7.68342 10.0404 7.29289C9.64992 6.90237 9.01676 6.90237 8.62623 7.29289L5.95956 9.95956C5.56904 10.3501 5.56904 10.9832 5.95956 11.3738L8.62623 14.0404C9.01676 14.431 9.64992 14.431 10.0404 14.0404C10.431 13.6499 10.431 13.0168 10.0404 12.6262L9.08089 11.6667H22.6667C23.219 11.6667 23.6667 11.219 23.6667 10.6667C23.6667 10.1144 23.219 9.66667 22.6667 9.66667H9.08089L10.0404 8.70711Z" fill="#2E0039"/>
<path d="M21.9596 17.9596C21.569 18.3501 21.569 18.9832 21.9596 19.3738L22.9191 20.3333H9.33334C8.78105 20.3333 8.33334 20.781 8.33334 21.3333C8.33334 21.8856 8.78105 22.3333 9.33334 22.3333H22.9191L21.9596 23.2929C21.569 23.6834 21.569 24.3166 21.9596 24.7071C22.3501 25.0976 22.9833 25.0976 23.3738 24.7071L26.0404 22.0404C26.431 21.6499 26.431 21.0168 26.0404 20.6262L23.3738 17.9596C22.9833 17.569 22.3501 17.569 21.9596 17.9596Z" fill="#2E0039"/>
</svg>
